<svg width="400" height="432" viewBox="0 0 400 432" fill="none" xmlns="http://www.w3.org/2000/svg">
<path d="M175.177 432C239.448 432 291.55 428.744 291.55 424.727C291.55 420.711 239.448 417.455 175.177 417.455C110.906 417.455 58.8047 420.711 58.8047 424.727C58.8047 428.744 110.906 432 175.177 432Z" fill="#FFE4EB"/>
<path d="M277.04 52.7015C277.04 51.2389 275.842 50.0569 274.361 50.0569C272.879 50.0569 271.682 51.2389 271.682 52.7015C271.682 54.164 272.879 55.3461 274.361 55.3461C275.832 55.3461 277.04 54.164 277.04 52.7015Z" fill="#6C6CE7"/>
<path d="M380.981 90.3268C380.981 88.8643 379.784 87.6822 378.302 87.6822C376.82 87.6822 375.623 88.8643 375.623 90.3268C375.623 91.7894 376.82 92.9714 378.302 92.9714C379.784 92.9614 380.981 91.7793 380.981 90.3268Z" fill="#F74C32"/>
<path d="M121.84 24.0317C121.84 22.5691 120.643 21.3871 119.161 21.3871C117.68 21.3871 116.482 22.5691 116.482 24.0317C116.482 25.4942 117.68 26.6763 119.161 26.6763C120.643 26.6763 121.84 25.4942 121.84 24.0317Z" fill="#F74C32"/>
<path d="M51.438 186.323C51.438 184.861 50.2406 183.679 48.759 183.679C47.2775 183.679 46.0801 184.861 46.0801 186.323C46.0801 187.786 47.2775 188.968 48.759 188.968C50.2406 188.968 51.438 187.786 51.438 186.323Z" fill="#F74C32"/>
<path d="M316.596 186.033C316.596 184.57 315.399 183.388 313.917 183.388C312.436 183.388 311.238 184.57 311.238 186.033C311.238 187.496 312.436 188.678 313.917 188.678C315.399 188.678 316.596 187.496 316.596 186.033Z" fill="#FDD34F"/>
<path d="M249.489 60.4349C249.489 59.8539 249.012 59.373 248.414 59.373C247.825 59.373 247.338 59.8439 247.338 60.4349C247.338 61.0159 247.815 61.4967 248.414 61.4967C249.012 61.4967 249.489 61.0259 249.489 60.4349Z" fill="#F74C32"/>
<path d="M362.818 91.3887C363.412 91.3887 363.893 90.9132 363.893 90.3268C363.893 89.7404 363.412 89.265 362.818 89.265C362.224 89.265 361.742 89.7404 361.742 90.3268C361.742 90.9132 362.224 91.3887 362.818 91.3887Z" fill="#FDD34F"/>
<path d="M263.227 19.3936C263.227 18.8126 262.751 18.3318 262.152 18.3318C261.563 18.3318 261.076 18.8026 261.076 19.3936C261.076 19.9746 261.553 20.4555 262.152 20.4555C262.751 20.4455 263.227 19.9746 263.227 19.3936Z" fill="#6C6CE7"/>
<path d="M160.321 49.4158C160.321 48.8348 159.844 48.3539 159.246 48.3539C158.647 48.3539 158.17 48.8248 158.17 49.4158C158.17 49.9968 158.647 50.4776 159.246 50.4776C159.844 50.4776 160.321 50.0068 160.321 49.4158Z" fill="#FDD34F"/>
<path d="M79.4755 39.158C79.4755 38.577 78.9986 38.0961 78.3999 38.0961C77.8113 38.0961 77.3242 38.5669 77.3242 39.158C77.3242 39.739 77.8012 40.2198 78.3999 40.2198C78.9884 40.2098 79.4755 39.739 79.4755 39.158Z" fill="#6C6CE7"/>
<path d="M148.451 65.644C149.045 65.644 149.526 65.1686 149.526 64.5821C149.526 63.9957 149.045 63.5203 148.451 63.5203C147.857 63.5203 147.375 63.9957 147.375 64.5821C147.375 65.1686 147.857 65.644 148.451 65.644Z" fill="#6C6CE7"/>
<path d="M74.6864 6.00038C74.6864 5.41937 74.2095 4.93854 73.6108 4.93854C73.0222 4.93854 72.5352 5.40935 72.5352 6.00038C72.5352 6.58139 73.0121 7.06222 73.6108 7.06222C74.2095 7.06222 74.6864 6.5914 74.6864 6.00038Z" fill="#FDD34F"/>
<path d="M329.106 241.67C329.106 241.089 328.629 240.608 328.031 240.608C327.442 240.608 326.955 241.079 326.955 241.67C326.955 242.251 327.432 242.731 328.031 242.731C328.619 242.731 329.106 242.261 329.106 241.67Z" fill="#6C6CE7"/>
<path d="M311.288 250.655C311.288 250.074 310.811 249.593 310.212 249.593C309.624 249.593 309.137 250.064 309.137 250.655C309.137 251.236 309.614 251.717 310.212 251.717C310.811 251.707 311.288 251.236 311.288 250.655Z" fill="#6C6CE7"/>
<path d="M47.6928 128.934C48.2869 128.934 48.7685 128.458 48.7685 127.872C48.7685 127.286 48.2869 126.81 47.6928 126.81C47.0988 126.81 46.6172 127.286 46.6172 127.872C46.6172 128.458 47.0988 128.934 47.6928 128.934Z" fill="#6C6CE7"/>
<path d="M102.521 183.509C103.115 183.509 103.597 183.033 103.597 182.447C103.597 181.86 103.115 181.385 102.521 181.385C101.927 181.385 101.445 181.86 101.445 182.447C101.445 183.033 101.927 183.509 102.521 183.509Z" fill="#6C6CE7"/>
<path d="M275.427 189.629C275.427 189.048 274.95 188.567 274.351 188.567C273.762 188.567 273.275 189.038 273.275 189.629C273.275 190.22 273.752 190.691 274.351 190.691C274.95 190.691 275.427 190.22 275.427 189.629Z" fill="#F74C32"/>
<path d="M26.5868 217.668C26.5868 217.087 26.1099 216.606 25.5112 216.606C24.9226 216.606 24.4355 217.077 24.4355 217.668C24.4355 218.249 24.9125 218.73 25.5112 218.73C26.1099 218.73 26.5868 218.259 26.5868 217.668Z" fill="#6C6CE7"/>
<path d="M2.15129 64.522C2.15129 63.941 1.67436 63.4602 1.07565 63.4602C0.487086 63.4602 0 63.931 0 64.522C0 65.1031 0.476939 65.5839 1.07565 65.5839C1.67436 65.5739 2.15129 65.1031 2.15129 64.522Z" fill="#6C6CE7"/>
<path d="M33.2125 91.7993L28.6562 99.5929H37.7789L33.2125 91.7993Z" fill="#FDD34F"/>
<path d="M296.644 12.0008L292.088 19.7943H301.2L296.644 12.0008Z" fill="#F74C32"/>
<path d="M367.373 206.068L371.929 198.274H362.816L367.373 206.068Z" fill="#FDD34F"/>
<path d="M52.2496 7.80355L56.816 0H47.6934L52.2496 7.80355Z" fill="#6C6CE7"/>
<path d="M148.247 22.0082L140.9 29.2608" stroke="#060305" stroke-width="0.8" stroke-miterlimit="10" stroke-linecap="round" stroke-linejoin="round"/>
<path d="M140.9 22.0082L148.247 29.2608" stroke="#060305" stroke-width="0.8" stroke-miterlimit="10" stroke-linecap="round" stroke-linejoin="round"/>
<path d="M291.712 214.042L284.355 221.294" stroke="#060305" stroke-width="0.8" stroke-miterlimit="10" stroke-linecap="round" stroke-linejoin="round"/>
<path d="M284.355 214.042L291.712 221.294" stroke="#060305" stroke-width="0.8" stroke-miterlimit="10" stroke-linecap="round" stroke-linejoin="round"/>
<path d="M366.489 148.788L359.143 156.041" stroke="#060305" stroke-width="0.8" stroke-miterlimit="10" stroke-linecap="round" stroke-linejoin="round"/>
<path d="M359.143 148.788L366.489 156.041" stroke="#060305" stroke-width="0.8" stroke-miterlimit="10" stroke-linecap="round" stroke-linejoin="round"/>
<path d="M23.1457 182.697L15.7988 189.95" stroke="#060305" stroke-width="0.8" stroke-miterlimit="10" stroke-linecap="round" stroke-linejoin="round"/>
<path d="M15.7988 182.697L23.1457 189.95" stroke="#060305" stroke-width="0.8" stroke-miterlimit="10" stroke-linecap="round" stroke-linejoin="round"/>
<path d="M156.407 116.602C150.227 111.694 144.077 106.735 137.897 101.827C132.55 106.415 127.658 110.802 122.311 115.39C126.126 105.713 129.536 95.8764 132.519 85.9191C134.041 80.8503 135.472 75.6313 135.117 70.3521C134.539 61.7772 129.373 52.6714 121.042 50.1771C113.005 47.7729 104.938 45.1083 97.3476 41.5721C96.4444 42.073 96.1603 43.2751 96.414 44.2668C96.6677 45.2585 97.3273 46.09 97.9767 46.8814C100.331 49.7664 102.675 52.6514 105.029 55.5464C100.016 57.3696 95.0136 59.0124 89.8079 60.1644C82.9481 57.6601 75.7535 55.7467 68.498 54.8352C67.0367 54.6549 65.474 55.3961 65.0072 56.7785C67.1889 57.8204 69.4823 59.1527 71.664 60.1945C67.9804 60.0342 64.4592 59.8639 60.7858 59.7036C59.3651 59.6435 57.7111 60.3648 57.3965 61.7271C58.3707 62.2581 59.2434 62.8691 60.2175 63.4C59.0201 63.3399 57.6806 64.4619 57.5588 65.6439C64.5505 68.4488 78.605 74.2188 78.605 74.2188C78.605 74.2188 81.1723 77.1639 82.5016 78.7166C87.474 79.1273 92.2941 79.3177 97.2664 79.7384C90.3457 92.2101 84.4297 105.453 79.2341 118.716C76.6465 125.338 76.8291 133.331 79.0718 140.073C81.3144 146.815 85.9924 152.745 92.0607 156.542C102.371 163.003 115.786 162.963 127.405 159.256C139.024 155.56 149.253 148.598 159.258 141.696L156.407 116.602Z" fill="#C14F4F"/>
<path d="M78.4943 74.7197C75.9168 70.863 73.3393 66.9963 70.7618 63.1396C70.7517 62.4885 71.6244 61.9175 72.2839 61.9576C72.9435 61.9976 73.522 62.3783 74.0598 62.759C77.8753 65.4636 81.3965 68.5891 84.5422 72.0451" fill="#915151"/>
<path d="M78.4943 74.7197C75.9168 70.863 73.3393 66.9963 70.7618 63.1396C70.7517 62.4885 71.6244 61.9175 72.2839 61.9576C72.9435 61.9976 73.522 62.3783 74.0598 62.759C77.8753 65.4636 81.3965 68.5891 84.5422 72.0451" stroke="#060305" stroke-width="0.8" stroke-miterlimit="10" stroke-linecap="round" stroke-linejoin="round"/>
<path d="M105.719 55.9471C105.861 58.8121 107.992 61.4867 110.793 62.2781L105.719 55.9471Z" fill="#915151"/>
<path d="M105.719 55.9471C105.861 58.8121 107.992 61.4867 110.793 62.2781" stroke="#060305" stroke-width="0.8" stroke-miterlimit="10" stroke-linecap="round" stroke-linejoin="round"/>
<path d="M96.8711 79.9888C98.7281 80.1088 100.585 80.2288 102.452 80.3388L96.8711 79.9888Z" fill="#915151"/>
<path d="M96.8711 79.9888C98.7281 80.1088 100.585 80.2288 102.452 80.3388" stroke="#060305" stroke-width="0.8" stroke-miterlimit="10" stroke-linecap="round" stroke-linejoin="round"/>
<path d="M94.4461 61.086C93.8474 64.4819 93.2589 67.8778 92.6602 71.2737L94.4461 61.086Z" fill="#915151"/>
<path d="M94.4461 61.086C93.8474 64.4819 93.2589 67.8778 92.6602 71.2737" stroke="#060305" stroke-width="0.8" stroke-miterlimit="10" stroke-linecap="round" stroke-linejoin="round"/>
<path d="M70.8613 60.0142C76.4324 61.1061 82.0135 62.198 87.5846 63.2899L70.8613 60.0142Z" fill="#915151"/>
<path d="M70.8613 60.0142C76.4324 61.1061 82.0135 62.198 87.5846 63.2899" stroke="#060305" stroke-width="0.8" stroke-miterlimit="10" stroke-linecap="round" stroke-linejoin="round"/>
<path d="M59.9434 63.0895C63.9111 63.7707 67.8686 64.4418 71.8363 65.123L59.9434 63.0895Z" fill="#915151"/>
<path d="M59.9434 63.0895C63.9111 63.7707 67.8686 64.4418 71.8363 65.123" stroke="#060305" stroke-width="0.8" stroke-miterlimit="10" stroke-linecap="round" stroke-linejoin="round"/>
<path d="M122.696 114.769C120.859 117.644 119.012 120.509 117.176 123.384L122.696 114.769Z" fill="#915151"/>
<path d="M122.696 114.769C120.859 117.644 119.012 120.509 117.176 123.384" stroke="#060305" stroke-width="0.8" stroke-miterlimit="10" stroke-linecap="round" stroke-linejoin="round"/>
<path d="M312.607 133.181C312.658 119.207 312.689 105.112 312.729 91.1382L336.982 88.4235L351.554 72.9466C353.847 70.863 356.222 68.7193 358.515 66.6357C358.058 65.9044 357.247 65.4736 356.374 65.5438C357.358 64.1113 358.282 62.5987 359.266 61.1662C358.748 60.6653 358.028 60.3548 357.307 60.3347C356.577 60.3147 355.867 60.8055 355.207 61.1161C353.188 62.0677 351.31 63.1596 349.474 64.4118C349.991 62.5686 350.529 60.6353 351.046 58.7921C350.316 58.4715 349.453 58.4615 348.712 58.752C347.972 59.0425 347.343 59.8839 346.876 60.515C344.846 63.2498 340.909 68.6492 340.909 68.6492C340.909 68.6492 337.408 70.7628 335.632 71.8247C328.265 69.4506 321.03 67.0163 313.663 64.6422C317.377 61.5869 321.081 58.5216 324.795 55.4663C325.718 54.705 326.672 53.9036 327.159 52.8117C327.636 51.7198 327.636 50.0769 326.631 49.4158C317.965 51.7198 309.299 54.0138 300.633 56.3178C295.448 57.6901 290.11 59.1427 285.858 62.3783C281.332 65.8142 278.856 71.2236 278.105 76.8033C276.472 88.9344 275.305 100.925 273.671 113.056C270.474 109.18 267.278 105.293 264.082 101.416C249.378 107.366 236.805 118.556 230.006 132.74C239.25 143.199 249.905 152.385 261.392 160.388C267.998 164.986 276.421 167.21 284.468 166.529C292.525 165.838 300.248 161.951 305.545 155.911C310.842 149.88 312.577 141.165 312.607 133.181Z" fill="#C14F4F"/>
<path d="M273.602 112.425C273.855 114.909 274.109 117.404 274.353 119.888L273.602 112.425Z" fill="#C14F4F"/>
<path d="M273.602 112.425C273.855 114.909 274.109 117.404 274.353 119.888" stroke="#060305" stroke-width="0.8" stroke-miterlimit="10" stroke-linecap="round" stroke-linejoin="round"/>
<path d="M314.038 64.4018C312.08 67.7977 308.599 70.302 304.723 71.1134L314.038 64.4018Z" fill="#C14F4F"/>
<path d="M314.038 64.4018C312.08 67.7977 308.599 70.302 304.723 71.1134" stroke="#060305" stroke-width="0.8" stroke-miterlimit="10" stroke-linecap="round" stroke-linejoin="round"/>
<path d="M330.152 72.3556C329.137 75.0903 328.122 77.8251 327.107 80.5598L330.152 72.3556Z" fill="#C14F4F"/>
<path d="M330.152 72.3556C329.137 75.0903 328.122 77.8251 327.107 80.5598" stroke="#060305" stroke-width="0.8" stroke-miterlimit="10" stroke-linecap="round" stroke-linejoin="round"/>
<path d="M335.43 73.4275C340.189 70.262 344.948 67.0865 349.707 63.921L335.43 73.4275Z" fill="#C14F4F"/>
<path d="M335.43 73.4275C340.189 70.262 344.948 67.0865 349.707 63.921" stroke="#060305" stroke-width="0.8" stroke-miterlimit="10" stroke-linecap="round" stroke-linejoin="round"/>
<path d="M334.861 76.3024C341.315 72.7262 347.779 69.15 354.233 65.5738C354.943 65.1831 356.06 65.083 356.831 65.3635" fill="#C14F4F"/>
<path d="M334.861 76.3024C341.315 72.7262 347.779 69.15 354.233 65.5738C354.943 65.1831 356.06 65.083 356.831 65.3635" stroke="#060305" stroke-width="0.8" stroke-miterlimit="10" stroke-linecap="round" stroke-linejoin="round"/>
<path d="M334.963 80.7101C339.377 77.8251 343.791 74.9501 348.216 72.0651C348.743 71.7145 349.383 71.5442 350.012 71.6243C350.641 71.7045 351.23 72.0951 351.544 72.6461" fill="#C14F4F"/>
<path d="M334.963 80.7101C339.377 77.8251 343.791 74.9501 348.216 72.0651C348.743 71.7145 349.383 71.5442 350.012 71.6243C350.641 71.7045 351.23 72.0951 351.544 72.6461" stroke="#060305" stroke-width="0.8" stroke-miterlimit="10" stroke-linecap="round" stroke-linejoin="round"/>
<path d="M267.888 101.757C263.453 96.9282 258.897 92.1299 253.57 88.2832C248.232 84.4366 242.022 81.5616 235.436 81.0206C228.85 80.4797 222.396 83.4849 216.774 86.8908C212.695 89.3651 208.88 91.609 204.8 94.0833C203.735 92.8812 202.131 92.16 200.508 92.15C198.884 92.1399 196.997 92.7009 195.901 93.883C188.899 89.2149 181.613 84.5768 173.353 82.8438C165.093 81.1108 156.447 82.7336 150.135 88.2632C144.199 93.4722 138.263 98.6813 132.326 103.89C137.501 110.161 142.819 115.881 148.004 122.152C147.324 139.622 146.604 157.293 145.924 174.763L245.441 164.706C245.299 150.281 244.711 135.846 244.569 121.411C252.037 114.849 260.429 108.328 267.888 101.757Z" fill="white"/>
<path d="M188.808 90.9779C188.281 94.5942 189.844 98.4309 192.756 100.675C195.668 102.919 199.819 103.49 203.249 102.107C206.668 100.725 209.236 97.4592 209.723 93.8329" stroke="#060305" stroke-width="0.8" stroke-miterlimit="10" stroke-linecap="round" stroke-linejoin="round"/>
<path d="M244.609 114.399C244.629 116.973 244.649 119.538 244.669 122.112" stroke="#060305" stroke-width="0.8" stroke-miterlimit="10" stroke-linecap="round" stroke-linejoin="round"/>
<path d="M147.82 122.613C147.912 119.918 148.003 117.223 148.094 114.529" stroke="#060305" stroke-width="0.8" stroke-miterlimit="10" stroke-linecap="round" stroke-linejoin="round"/>
<path d="M135.076 101.867C139.379 107.166 143.671 112.475 147.974 117.774" stroke="#060305" stroke-width="0.8" stroke-miterlimit="10" stroke-linecap="round" stroke-linejoin="round"/>
<path d="M244.629 116.993C251.326 110.842 258.034 104.702 264.731 98.5511" stroke="#060305" stroke-width="0.8" stroke-miterlimit="10" stroke-linecap="round" stroke-linejoin="round"/>
<path d="M190.555 65.5438C190.92 63.2498 192.188 61.1061 194.025 59.6435C195.862 58.191 198.257 57.4397 200.611 57.5799" stroke="#060305" stroke-width="0.8" stroke-miterlimit="10" stroke-linecap="round" stroke-linejoin="round"/>
<path d="M183.156 72.2153C183.826 72.576 184.496 72.9366 185.165 73.2872" stroke="#060305" stroke-width="0.8" stroke-miterlimit="10" stroke-linecap="round" stroke-linejoin="round"/>
<path d="M216.025 74.7798C217.019 74.2689 217.577 73.0468 217.323 71.9749C217.07 70.8931 215.893 70.1818 214.766 70.1518C215.568 68.5891 215.142 66.5155 213.802 65.3635C212.463 64.2215 210.322 64.0913 208.87 65.103C207.632 61.3465 203.807 58.5817 199.809 58.5416C195.811 58.4915 191.833 61.2663 190.503 64.9928C189.489 64.4118 188.078 64.6021 187.266 65.4236C186.444 66.255 186.211 67.8277 186.82 68.8094C185.856 68.8094 184.922 69.4305 184.577 70.3221C184.232 71.2036 184.496 72.5359 185.206 73.177C182.73 74.3491 181.33 77.3643 182.05 79.9788C182.771 82.5934 185.531 84.4967 188.261 84.2663L210.727 81.6618C212.28 81.7619 213.954 80.3094 214.147 78.7767C215.091 78.917 216.096 78.4362 216.552 77.6147C217.019 76.7933 216.897 75.6914 216.278 74.9802C216.207 74.9802 216.106 74.7898 216.025 74.7798Z" fill="#060305"/>
<path d="M206.577 94.8446C209.094 94.0032 211.245 92.1299 212.392 89.7658C213.549 87.4017 213.965 84.4165 212.96 81.9823C211.955 79.5581 210.829 77.2441 209.824 74.8099C206.029 72.3155 200.813 72.4157 196.825 74.5995C196.947 75.1905 196.775 75.8216 196.379 76.2824C195.983 76.7332 195.445 76.9736 194.836 76.9436C195.476 78.5263 194.654 80.4897 193.152 81.3212C192.746 80.7602 192.208 80.2092 191.792 79.6483C189.874 79.3277 187.804 80.2092 186.728 81.812C185.643 83.4048 185.612 85.6286 186.637 87.2615C187.662 88.8943 189.702 89.846 191.63 89.5955C191.609 90.7175 191.62 91.7693 191.589 92.8913C191.518 96.1669 194.836 99.0119 198.114 99.5027C201.402 99.9936 205.177 97.8198 206.577 94.8446Z" fill="#C14F4F"/>
<path d="M199.026 83.3447C199.497 83.3447 199.879 82.9679 199.879 82.5032C199.879 82.0385 199.497 81.6617 199.026 81.6617C198.555 81.6617 198.174 82.0385 198.174 82.5032C198.174 82.9679 198.555 83.3447 199.026 83.3447Z" fill="#060305"/>
<path d="M208.597 82.413C209.067 82.413 209.449 82.0363 209.449 81.5716C209.449 81.1068 209.067 80.7301 208.597 80.7301C208.126 80.7301 207.744 81.1068 207.744 81.5716C207.744 82.0363 208.126 82.413 208.597 82.413Z" fill="#060305"/>
<path d="M191.324 89.6354C191.791 89.5954 192.248 89.5454 192.714 89.5054" stroke="#060305" stroke-width="0.8" stroke-miterlimit="10" stroke-linecap="round" stroke-linejoin="round"/>
<path d="M188.697 82.5333C189.702 83.1343 190.706 83.7353 191.721 84.3464" stroke="#060305" stroke-width="0.8" stroke-miterlimit="10" stroke-linecap="round" stroke-linejoin="round"/>
<path d="M197.068 77.214C197.21 76.593 197.667 76.062 198.256 75.8116C198.844 75.5612 199.555 75.6112 200.102 75.9318" stroke="#060305" stroke-width="0.8" stroke-miterlimit="10" stroke-linecap="round" stroke-linejoin="round"/>
<path d="M207.055 75.6914C207.572 75.1504 208.414 74.9401 209.135 75.1805" stroke="#060305" stroke-width="0.8" stroke-miterlimit="10" stroke-linecap="round" stroke-linejoin="round"/>
<path d="M202.893 82.383C202.893 80.2693 201.158 78.5563 199.017 78.5563C196.876 78.5563 195.141 80.2693 195.141 82.383C195.141 84.4966 196.876 86.2096 199.017 86.2096C201.158 86.2096 202.893 84.4966 202.893 82.383Z" stroke="#060305" stroke-width="0.8" stroke-miterlimit="10" stroke-linecap="round" stroke-linejoin="round"/>
<path d="M213.913 81.1308C213.913 79.0172 212.178 77.3042 210.037 77.3042C207.895 77.3042 206.16 79.0172 206.16 81.1308C206.16 83.2445 207.895 84.9575 210.037 84.9575C212.188 84.9575 213.913 83.2445 213.913 81.1308Z" stroke="#060305" stroke-width="0.8" stroke-miterlimit="10" stroke-linecap="round" stroke-linejoin="round"/>
<path d="M202.771 80.6099C203.644 79.8186 205.075 79.6883 206.08 80.3094" stroke="#060305" stroke-width="0.8" stroke-miterlimit="10" stroke-linecap="round" stroke-linejoin="round"/>
<path d="M204.416 81.4514C204.832 82.5032 205.258 83.545 205.674 84.5968C205.299 84.6569 204.944 84.7371 204.558 84.7972" stroke="#060305" stroke-width="0.8" stroke-miterlimit="10" stroke-linecap="round" stroke-linejoin="round"/>
<path d="M201.473 86.5302C202.041 86.5902 202.609 86.6602 203.177 86.7202" stroke="#060305" stroke-width="0.8" stroke-miterlimit="10" stroke-linecap="round" stroke-linejoin="round"/>
<path d="M198.754 94.4039C201.382 95.616 204.518 95.7462 207.237 94.7345" stroke="#060305" stroke-width="0.8" stroke-miterlimit="10" stroke-linecap="round" stroke-linejoin="round"/>
<path d="M139.714 417.304C133.047 411.254 131.261 400.786 134.194 392.321C135.077 389.777 136.558 386.922 137.441 384.367C119.287 380.781 101.407 378.828 83.0195 376.654C80.8784 388.024 78.7271 399.393 76.5859 410.763C84.0343 415.091 91.2898 419.548 98.7483 423.866L144.372 424.036C144.443 421.121 141.906 419.288 139.714 417.304Z" fill="#08131E"/>
<path d="M78.0684 406.225C86.0748 411.044 102.088 420.68 102.088 420.68C102.088 420.68 128.908 421.462 142.435 421.932" fill="#08131E"/>
<path d="M78.0684 406.225C86.0748 411.044 102.088 420.68 102.088 420.68C102.088 420.68 128.908 421.462 142.435 421.932" stroke="white" stroke-width="0.8" stroke-miterlimit="10" stroke-linecap="round" stroke-linejoin="round"/>
<path d="M111.475 395.356C115.676 395.947 119.867 396.538 124.068 397.129L111.475 395.356Z" fill="#08131E"/>
<path d="M111.475 395.356C115.676 395.947 119.867 396.538 124.068 397.129" stroke="white" stroke-width="0.8" stroke-miterlimit="10" stroke-linecap="round" stroke-linejoin="round"/>
<path d="M111.199 399.674C115.055 400.044 118.922 400.405 122.778 400.776L111.199 399.674Z" fill="#08131E"/>
<path d="M111.199 399.674C115.055 400.044 118.922 400.405 122.778 400.776" stroke="white" stroke-width="0.8" stroke-miterlimit="10" stroke-linecap="round" stroke-linejoin="round"/>
<path d="M236.093 420.099C232.552 417.885 229.72 414.59 228.087 410.783C224.596 402.679 226.017 392.782 228.137 384.227C208.664 385.209 189.049 386.691 169.576 387.673C168.886 399.614 168.206 411.544 167.516 423.485L239.645 424.417C239.462 422.453 237.767 421.161 236.093 420.099Z" fill="#08131E"/>
<path d="M168.895 419.608C191.24 420.21 213.585 420.811 235.93 421.412L168.895 419.608Z" fill="#08131E"/>
<path d="M168.895 419.608C191.24 420.21 213.585 420.811 235.93 421.412" stroke="white" stroke-width="0.8" stroke-miterlimit="10" stroke-linecap="round" stroke-linejoin="round"/>
<path d="M207.709 399.423C212.417 399.483 217.116 399.543 221.824 399.593L207.709 399.423Z" fill="#08131E"/>
<path d="M207.709 399.423C212.417 399.483 217.116 399.543 221.824 399.593" stroke="white" stroke-width="0.8" stroke-miterlimit="10" stroke-linecap="round" stroke-linejoin="round"/>
<path d="M207.709 404.202C212.245 404.202 216.781 404.202 221.317 404.202H207.709Z" fill="#08131E"/>
<path d="M207.709 404.202C212.245 404.202 216.781 404.202 221.317 404.202" stroke="white" stroke-width="0.8" stroke-miterlimit="10" stroke-linecap="round" stroke-linejoin="round"/>
<path d="M246.078 161.25L144.582 171.367C144.521 174.273 144.47 177.178 144.409 180.073C121.526 242.731 106.63 288.791 81.4434 378.577C100.409 382.454 119.68 385.73 138.645 389.606C147.92 363.331 157.002 337.145 166.277 310.87C173.908 289.252 182.097 267.665 189.962 246.127C188.886 258.399 188.003 270.79 186.928 283.061C178.13 321.889 173.523 354.245 167.241 389.656C188.917 390.047 207.882 390.097 229.558 390.488C236.803 340.05 247.194 288.23 254.44 237.793C258.103 212.218 256.195 185.081 246.078 161.25Z" fill="#000D1A"/>
<path d="M145.455 180.894L247.53 168.863" stroke="white" stroke-width="0.8" stroke-miterlimit="10" stroke-linecap="round" stroke-linejoin="round"/>
<path d="M209.984 170.676C209.984 167.1 207.051 164.205 203.428 164.205C199.806 164.205 196.873 167.1 196.873 170.676C196.873 174.252 199.806 177.148 203.428 177.148C207.041 177.158 209.984 174.252 209.984 170.676Z" fill="#000D1A" stroke="white" stroke-width="0.8" stroke-miterlimit="10" stroke-linecap="round" stroke-linejoin="round"/>
<path d="M189.037 248.431C191.493 240.988 193.938 233.545 196.394 226.103L189.037 248.431Z" fill="#000D1A"/>
<path d="M189.037 248.431C191.493 240.988 193.938 233.545 196.394 226.103" stroke="white" stroke-width="0.8" stroke-miterlimit="10" stroke-linecap="round" stroke-linejoin="round"/>
<path d="M85.959 365.124C105.026 368.39 124.084 371.645 143.151 374.911L85.959 365.124Z" fill="#000D1A"/>
<path d="M85.959 365.124C105.026 368.39 124.084 371.645 143.151 374.911" stroke="white" stroke-width="0.8" stroke-miterlimit="10" stroke-linecap="round" stroke-linejoin="round"/>
<path d="M171.441 373.538C191.229 374.69 211.017 375.853 230.805 377.005L171.441 373.538Z" fill="#000D1A"/>
<path d="M171.441 373.538C191.229 374.69 211.017 375.853 230.805 377.005" stroke="white" stroke-width="0.8" stroke-miterlimit="10" stroke-linecap="round" stroke-linejoin="round"/>
<path d="M148.416 180.844C129.116 242.03 109.805 303.216 90.5039 364.403L148.416 180.844Z" fill="#000D1A"/>
<path d="M148.416 180.844C129.116 242.03 109.805 303.216 90.5039 364.403" stroke="white" stroke-width="0.8" stroke-miterlimit="10" stroke-linecap="round" stroke-linejoin="round"/>
<path d="M140.857 207.56C152.892 202.271 162.34 191.532 165.973 179.031L140.857 207.56Z" fill="#000D1A"/>
<path d="M140.857 207.56C152.892 202.271 162.34 191.532 165.973 179.031" stroke="white" stroke-width="0.8" stroke-miterlimit="10" stroke-linecap="round" stroke-linejoin="round"/>
<path d="M239.047 169.775C244.283 178.019 249.519 186.263 254.745 194.508L239.047 169.775Z" fill="#000D1A"/>
<path d="M239.047 169.775C244.283 178.019 249.519 186.263 254.745 194.508" stroke="white" stroke-width="0.8" stroke-miterlimit="10" stroke-linecap="round" stroke-linejoin="round"/>
<path d="M192.904 238.785C192.914 252.959 192.924 281.318 192.924 281.318C192.924 281.318 180.412 342.114 174.75 372.957" fill="#000D1A"/>
<path d="M192.904 238.785C192.914 252.959 192.924 281.318 192.924 281.318C192.924 281.318 180.412 342.114 174.75 372.957" stroke="white" stroke-width="0.8" stroke-miterlimit="10" stroke-linecap="round" stroke-linejoin="round"/>
</svg>
