<svg width="432" height="372" viewBox="0 0 432 372" fill="none" xmlns="http://www.w3.org/2000/svg">
<path d="M330.87 231.398C319.95 275.607 309.65 320.196 298.81 364.445C271.54 369.781 243.33 370.58 215.64 367.682C202.48 366.303 189.29 364.145 176.33 361.087C170.94 345.478 168.24 328.9 170.14 312.561C174.6 274.368 190.09 230.978 211.24 198.861C252.42 204.357 290.94 219.976 330.87 231.398Z" fill="#000D1A"/>
<path d="M241.191 270.241C236.991 305.026 233.671 332.447 229.471 367.233L241.191 270.241Z" fill="#000D1A"/>
<path d="M241.191 270.241C236.991 305.026 233.671 332.447 229.471 367.233" stroke="white" stroke-miterlimit="10" stroke-linecap="round" stroke-linejoin="round"/>
<path d="M176.91 346.877C179.49 350.924 183.9 353.742 188.65 354.392C193.4 355.041 198.41 353.502 201.97 350.295" fill="#000D1A"/>
<path d="M176.91 346.877C179.49 350.924 183.9 353.742 188.65 354.392C193.4 355.041 198.41 353.502 201.97 350.295" stroke="white" stroke-miterlimit="10" stroke-linecap="round" stroke-linejoin="round"/>
<path d="M234.701 320.745C232.011 325.502 229.331 330.249 226.641 335.005C228.371 335.105 229.911 335.955 230.151 337.673C230.391 339.392 229.291 341.201 227.661 341.771C228.691 346.627 229.631 351.244 230.661 356.101" fill="#000D1A"/>
<path d="M234.701 320.745C232.011 325.502 229.331 330.249 226.641 335.005C228.371 335.105 229.911 335.955 230.151 337.673C230.391 339.392 229.291 341.201 227.661 341.771C228.691 346.627 229.631 351.244 230.661 356.101" stroke="white" stroke-miterlimit="10" stroke-linecap="round" stroke-linejoin="round"/>
<path d="M321.379 233.067C311.729 279.514 302.399 318.727 290.109 364.545L321.379 233.067Z" fill="#000D1A"/>
<path d="M321.379 233.067C311.729 279.514 302.399 318.727 290.109 364.545" stroke="white" stroke-miterlimit="10" stroke-linecap="round" stroke-linejoin="round"/>
<path d="M302.291 225.932C301.051 240.762 305.031 255.981 313.361 268.322L302.291 225.932Z" fill="#000D1A"/>
<path d="M302.291 225.932C301.051 240.762 305.031 255.981 313.361 268.322" stroke="white" stroke-miterlimit="10" stroke-linecap="round" stroke-linejoin="round"/>
<path d="M301.071 96.9026C298.651 99.221 298.001 103.188 299.571 106.156C301.131 109.124 304.771 110.843 308.061 110.153L310.391 95.7934C307.491 94.1146 303.491 94.5843 301.071 96.9026Z" fill="#060305"/>
<path d="M341.75 107.535C344.3 108.015 346.63 109.544 348.08 111.682C349.54 113.821 350.1 116.549 349.61 119.097" stroke="#060305" stroke-miterlimit="10" stroke-linecap="round" stroke-linejoin="round"/>
<path d="M342.891 107.785C344.041 106.496 343.431 103.268 341.791 102.729C343.911 100.77 343.871 96.9626 341.721 95.0439C340.381 93.8448 338.451 93.3551 337.341 91.9461C336.691 91.1167 336.411 90.0674 336.031 89.0781C334.701 85.6006 331.941 82.6926 328.531 81.1837C325.131 79.6747 321.121 79.5748 317.641 80.9239C320.061 91.3465 321.361 102.759 321.731 113.461L342.551 122.675C345.641 121.745 347.961 118.697 348.021 115.48C348.111 112.252 345.941 108.834 342.891 107.785Z" fill="#060305"/>
<path d="M360.681 132.398C351.671 122.255 341.261 113.351 329.831 106.036C327.871 107.165 324.981 108.634 322.751 109.014C320.521 109.394 318.071 109.044 316.301 107.625C314.721 106.356 313.821 104.287 313.981 102.259C294.041 100.92 273.171 99.9105 253.241 98.5714C245.701 135.535 234.781 165.874 214.221 197.502L331.781 235.085C335.011 221.305 338.881 207.755 342.111 193.974C354.171 189.018 366.751 183.782 378.861 178.935C382.341 177.546 385.561 176.956 389.041 175.557C382.221 159.589 372.211 145.389 360.681 132.398Z" fill="white"/>
<path d="M306.691 104.078C305.741 109.484 307.871 115.27 311.941 118.967C316.001 122.665 321.831 124.253 327.251 123.384C332.681 122.525 337.641 119.297 340.851 114.85" stroke="#060305" stroke-miterlimit="10" stroke-linecap="round" stroke-linejoin="round"/>
<path d="M276.782 100.52C271.812 112.292 266.162 123.764 259.852 134.876" stroke="#060305" stroke-miterlimit="10" stroke-linecap="round" stroke-linejoin="round"/>
<path d="M367.501 141.811C360.731 151.414 353.961 161.018 347.191 170.621" stroke="#060305" stroke-miterlimit="10" stroke-linecap="round" stroke-linejoin="round"/>
<path d="M364.73 179.195C372.21 176.137 379.7 173.079 387.18 170.021" stroke="#060305" stroke-miterlimit="10" stroke-linecap="round" stroke-linejoin="round"/>
<path d="M336.25 112.592C334.9 111.582 333.41 110.423 332.07 109.424C331.81 107.775 331.57 106.036 331.31 104.387C333.42 104.248 335.38 102.809 336.15 100.85C336.92 98.8813 336.44 96.493 334.98 94.974C333.52 93.4451 331.15 92.8655 329.15 93.545C328.51 94.8141 327.78 96.1632 327.14 97.4323C326.84 95.2538 326.25 93.0854 325.95 90.9069C325.32 86.3401 320.91 82.4728 316.32 82.1331C311.72 81.7933 308.21 84.9511 306.86 89.358C305.69 93.1753 305.13 97.2324 305.52 101.21C305.82 104.228 307.57 106.556 310.43 107.565C311.49 113.081 316.07 118.188 321.59 119.237C327.13 120.266 333.24 117.328 336.25 112.592Z" fill="#C14F4F"/>
<path d="M310.311 107.915C312.781 109.344 315.731 109.934 318.561 109.544C321.391 109.164 324.081 107.815 326.081 105.776" stroke="#060305" stroke-miterlimit="10" stroke-linecap="round" stroke-linejoin="round"/>
<path d="M330.131 97.9128C331.231 97.4928 332.331 97.0728 333.431 96.6528" stroke="#060305" stroke-miterlimit="10" stroke-linecap="round" stroke-linejoin="round"/>
<path d="M331.591 104.417C331.131 104.417 330.681 104.417 330.221 104.417" stroke="#060305" stroke-miterlimit="10" stroke-linecap="round" stroke-linejoin="round"/>
<path d="M319.051 100.49C319.603 100.49 320.051 100.043 320.051 99.4909C320.051 98.939 319.603 98.4916 319.051 98.4916C318.498 98.4916 318.051 98.939 318.051 99.4909C318.051 100.043 318.498 100.49 319.051 100.49Z" fill="#060305"/>
<path d="M308.391 98.2618C308.943 98.2618 309.391 97.8144 309.391 97.2625C309.391 96.7106 308.943 96.2632 308.391 96.2632C307.838 96.2632 307.391 96.7106 307.391 97.2625C307.391 97.8144 307.838 98.2618 308.391 98.2618Z" fill="#060305"/>
<path d="M307.32 92.1061C307.85 91.4066 308.81 91.0469 309.67 91.2267C310.53 91.4066 311.26 92.1161 311.47 92.9755" stroke="#060305" stroke-miterlimit="10" stroke-linecap="round" stroke-linejoin="round"/>
<path d="M317.5 93.7749C318.58 93.9349 319.66 94.0849 320.73 94.2449" stroke="#060305" stroke-miterlimit="10" stroke-linecap="round" stroke-linejoin="round"/>
<path d="M313.371 96.6929C312.771 97.992 312.161 99.2911 311.561 100.59C312.031 100.67 312.511 100.74 312.981 100.82" stroke="#060305" stroke-miterlimit="10" stroke-linecap="round" stroke-linejoin="round"/>
<path d="M314.57 102.549C314.87 103.039 315.48 103.319 316.04 103.239C316.61 103.159 317.11 102.719 317.26 102.159" stroke="#060305" stroke-miterlimit="10" stroke-linecap="round" stroke-linejoin="round"/>
<path d="M326.099 82.9624C324.819 81.3435 322.899 80.3442 320.909 79.8046C317.419 78.8453 313.599 79.1851 310.329 80.734C307.069 82.2829 304.389 85.0409 302.939 88.3486L327.699 93.7148C328.109 90.0174 328.409 85.8903 326.099 82.9624Z" fill="#060305"/>
<path d="M301.049 87.6991C303.179 83.9817 306.809 81.1537 310.929 79.9745C315.049 78.8053 319.629 79.305 323.399 81.3335" stroke="#060305" stroke-miterlimit="10" stroke-linecap="round" stroke-linejoin="round"/>
<path d="M262.42 35.1261H0V224.073H262.42V35.1261Z" fill="white"/>
<path d="M159.689 94.8842H82.6895V126.192H159.689V94.8842Z" fill="white"/>
<path d="M82.6895 146.088H159.699" stroke="#000D1A" stroke-miterlimit="10" stroke-linecap="round" stroke-linejoin="round"/>
<path d="M82.6895 153.923H159.699" stroke="#000D1A" stroke-miterlimit="10" stroke-linecap="round" stroke-linejoin="round"/>
<path d="M82.6895 161.747H159.699" stroke="#000D1A" stroke-miterlimit="10" stroke-linecap="round" stroke-linejoin="round"/>
<path d="M82.6895 169.572H159.699" stroke="#000D1A" stroke-miterlimit="10" stroke-linecap="round" stroke-linejoin="round"/>
<path d="M82.6895 177.406H159.699" stroke="#000D1A" stroke-miterlimit="10" stroke-linecap="round" stroke-linejoin="round"/>
<path d="M82.6895 185.231H159.699" stroke="#000D1A" stroke-miterlimit="10" stroke-linecap="round" stroke-linejoin="round"/>
<path d="M176.551 94.8842H248.661" stroke="#000D1A" stroke-miterlimit="10" stroke-linecap="round" stroke-linejoin="round"/>
<path d="M176.551 102.719H248.661" stroke="#000D1A" stroke-miterlimit="10" stroke-linecap="round" stroke-linejoin="round"/>
<path d="M176.551 110.543H248.661" stroke="#000D1A" stroke-miterlimit="10" stroke-linecap="round" stroke-linejoin="round"/>
<path d="M176.551 118.368H248.661" stroke="#000D1A" stroke-miterlimit="10" stroke-linecap="round" stroke-linejoin="round"/>
<path d="M176.551 126.202H248.661" stroke="#000D1A" stroke-miterlimit="10" stroke-linecap="round" stroke-linejoin="round"/>
<path d="M66.85 81.1538H0V224.073H66.85V81.1538Z" fill="#000D1A"/>
<path d="M22.0099 207.265C22.0099 204.407 19.6899 202.099 16.8399 202.099C13.9799 202.099 11.6699 204.417 11.6699 207.265C11.6699 210.123 13.9899 212.432 16.8399 212.432C19.6899 212.432 22.0099 210.113 22.0099 207.265Z" stroke="white" stroke-miterlimit="10" stroke-linecap="round" stroke-linejoin="round"/>
<path d="M38.5998 207.265C38.5998 204.407 36.2798 202.099 33.4298 202.099C30.5698 202.099 28.2598 204.417 28.2598 207.265C28.2598 210.123 30.5798 212.432 33.4298 212.432C36.2898 212.432 38.5998 210.113 38.5998 207.265Z" fill="#F6921E"/>
<path d="M55.1896 207.265C55.1896 204.407 52.8696 202.099 50.0196 202.099C47.1596 202.099 44.8496 204.417 44.8496 207.265C44.8496 210.123 47.1696 212.432 50.0196 212.432C52.8796 212.432 55.1896 210.113 55.1896 207.265Z" fill="#FF99A8"/>
<path d="M262.42 35.1261H0V55.2719H262.42V35.1261Z" fill="#000D1A"/>
<path d="M11.1194 48.2068C12.7818 48.2068 14.1294 46.8601 14.1294 45.1989C14.1294 43.5377 12.7818 42.191 11.1194 42.191C9.457 42.191 8.10938 43.5377 8.10938 45.1989C8.10938 46.8601 9.457 48.2068 11.1194 48.2068Z" fill="#000D1A" stroke="white" stroke-miterlimit="10" stroke-linecap="round" stroke-linejoin="round"/>
<path d="M23.8205 48.2068C25.4829 48.2068 26.8305 46.8601 26.8305 45.1989C26.8305 43.5377 25.4829 42.191 23.8205 42.191C22.1582 42.191 20.8105 43.5377 20.8105 45.1989C20.8105 46.8601 22.1582 48.2068 23.8205 48.2068Z" fill="#000D1A" stroke="white" stroke-miterlimit="10" stroke-linecap="round" stroke-linejoin="round"/>
<path d="M36.51 48.2068C38.1724 48.2068 39.52 46.8601 39.52 45.1989C39.52 43.5377 38.1724 42.191 36.51 42.191C34.8476 42.191 33.5 43.5377 33.5 45.1989C33.5 46.8601 34.8476 48.2068 36.51 48.2068Z" fill="#000D1A" stroke="white" stroke-miterlimit="10" stroke-linecap="round" stroke-linejoin="round"/>
<path d="M262.42 55.272H0V81.1538H262.42V55.272Z" fill="white"/>
<path d="M22.8994 64.9851H8.10938V71.0309H22.8994V64.9851Z" fill="#FF99A8"/>
<path d="M38.2109 66.1743H70.7409" stroke="#000D1A" stroke-miterlimit="10" stroke-linecap="round" stroke-linejoin="round"/>
<path d="M38.2109 69.8218H70.7409" stroke="#000D1A" stroke-miterlimit="10" stroke-linecap="round" stroke-linejoin="round"/>
<path d="M82.6895 66.1743H115.219" stroke="#000D1A" stroke-miterlimit="10" stroke-linecap="round" stroke-linejoin="round"/>
<path d="M82.6895 69.8218H115.219" stroke="#000D1A" stroke-miterlimit="10" stroke-linecap="round" stroke-linejoin="round"/>
<path d="M127.17 66.1743H159.7" stroke="#000D1A" stroke-miterlimit="10" stroke-linecap="round" stroke-linejoin="round"/>
<path d="M127.17 69.8218H159.7" stroke="#000D1A" stroke-miterlimit="10" stroke-linecap="round" stroke-linejoin="round"/>
<path d="M171.65 66.1743H204.18" stroke="#000D1A" stroke-miterlimit="10" stroke-linecap="round" stroke-linejoin="round"/>
<path d="M171.65 69.8218H204.18" stroke="#000D1A" stroke-miterlimit="10" stroke-linecap="round" stroke-linejoin="round"/>
<path d="M216.131 66.1743H248.661" stroke="#000D1A" stroke-miterlimit="10" stroke-linecap="round" stroke-linejoin="round"/>
<path d="M216.131 69.8218H248.661" stroke="#000D1A" stroke-miterlimit="10" stroke-linecap="round" stroke-linejoin="round"/>
<path d="M131.842 258.649L137.842 248.276H125.852L131.842 258.649Z" fill="#060305"/>
<path d="M86.8005 338.523L80.8105 348.896H92.8005L86.8005 338.523Z" fill="#814EFF"/>
<path d="M410.932 289.277L421.322 295.273V283.292L410.932 289.277Z" fill="#814EFF"/>
<path d="M365.46 72.05L355.08 66.0642V78.0458L365.46 72.05Z" fill="#814EFF"/>
<path d="M167.24 1L161.24 11.3827H173.23L167.24 1Z" stroke="#060305" stroke-miterlimit="10" stroke-linecap="round" stroke-linejoin="round"/>
<path d="M169.57 243.54C169.57 242.62 168.82 241.881 167.91 241.881C166.99 241.881 166.25 242.63 166.25 243.54C166.25 244.459 167 245.198 167.91 245.198C168.82 245.198 169.57 244.459 169.57 243.54Z" fill="#814EFF"/>
<path d="M334.521 302.568C334.521 301.649 333.771 300.909 332.861 300.909C331.941 300.909 331.201 301.659 331.201 302.568C331.201 303.487 331.951 304.227 332.861 304.227C333.771 304.237 334.521 303.487 334.521 302.568Z" fill="#814EFF"/>
<path d="M63.7713 232.867C64.6881 232.867 65.4313 232.124 65.4313 231.208C65.4313 230.292 64.6881 229.549 63.7713 229.549C62.8545 229.549 62.1113 230.292 62.1113 231.208C62.1113 232.124 62.8545 232.867 63.7713 232.867Z" fill="#060305"/>
<path d="M20.0409 252.793C20.9577 252.793 21.7009 252.05 21.7009 251.134C21.7009 250.218 20.9577 249.475 20.0409 249.475C19.1241 249.475 18.3809 250.218 18.3809 251.134C18.3809 252.05 19.1241 252.793 20.0409 252.793Z" fill="#814EFF"/>
<path d="M160.201 369.341C160.201 368.422 159.451 367.682 158.541 367.682C157.621 367.682 156.881 368.432 156.881 369.341C156.881 370.261 157.631 371 158.541 371C159.451 371 160.201 370.261 160.201 369.341Z" stroke="#060305" stroke-miterlimit="10" stroke-linecap="round" stroke-linejoin="round"/>
<path d="M356.22 276.436C356.22 275.517 355.47 274.778 354.56 274.778C353.64 274.778 352.9 275.527 352.9 276.436C352.9 277.356 353.65 278.095 354.56 278.095C355.47 278.105 356.22 277.356 356.22 276.436Z" fill="#060305"/>
<path d="M412.601 270.87C412.601 269.951 411.851 269.212 410.941 269.212C410.021 269.212 409.281 269.961 409.281 270.87C409.281 271.79 410.031 272.529 410.941 272.529C411.851 272.529 412.601 271.78 412.601 270.87Z" stroke="#060305" stroke-miterlimit="10" stroke-linecap="round" stroke-linejoin="round"/>
<path d="M397.851 57.9899C397.851 57.0705 397.101 56.3311 396.191 56.3311C395.271 56.3311 394.531 57.0805 394.531 57.9899C394.531 58.9092 395.281 59.6487 396.191 59.6487C397.101 59.6487 397.851 58.8992 397.851 57.9899Z" fill="#060305"/>
<path d="M280.422 74.1586C280.422 73.2392 279.672 72.4998 278.762 72.4998C277.842 72.4998 277.102 73.2492 277.102 74.1586C277.102 75.0779 277.852 75.8174 278.762 75.8174C279.682 75.8174 280.422 75.0779 280.422 74.1586Z" stroke="#060305" stroke-miterlimit="10" stroke-linecap="round" stroke-linejoin="round"/>
<path d="M367.131 100.06C367.131 99.141 366.381 98.4015 365.471 98.4015C364.551 98.4015 363.811 99.151 363.811 100.06C363.811 100.98 364.561 101.719 365.471 101.719C366.381 101.719 367.131 100.97 367.131 100.06Z" fill="#814EFF"/>
<path d="M208.201 16.1693C208.201 15.25 207.451 14.5105 206.541 14.5105C205.631 14.5105 204.881 15.26 204.881 16.1693C204.881 17.0887 205.631 17.8282 206.541 17.8282C207.451 17.8282 208.201 17.0887 208.201 16.1693Z" fill="#814EFF"/>
<path d="M97.7713 283.781C98.6881 283.781 99.4313 283.039 99.4313 282.122C99.4313 281.206 98.6881 280.464 97.7713 280.464C96.8545 280.464 96.1113 281.206 96.1113 282.122C96.1113 283.039 96.8545 283.781 97.7713 283.781Z" stroke="#060305" stroke-miterlimit="10" stroke-linecap="round" stroke-linejoin="round"/>
<path d="M113.661 304.237C112.631 307.445 108.081 307.445 107.051 304.237C106.021 301.029 101.471 301.029 100.441 304.237C99.4105 307.445 94.8605 307.445 93.8305 304.237C92.8005 301.029 88.2505 301.029 87.2205 304.237C86.1905 307.445 81.6405 307.445 80.6105 304.237C79.5805 301.029 75.0305 301.029 74.0005 304.237C72.9705 307.445 68.4205 307.445 67.3905 304.237C66.3605 301.029 61.8105 301.029 60.7805 304.237C59.7505 307.445 55.2005 307.445 54.1705 304.237C53.1405 301.029 48.5905 301.029 47.5605 304.237" stroke="#060305" stroke-miterlimit="10" stroke-linecap="round" stroke-linejoin="round"/>
<path d="M345.891 6.18633C344.861 9.39407 340.311 9.39407 339.281 6.18633C338.251 2.97858 333.701 2.97858 332.671 6.18633C331.641 9.39407 327.091 9.39407 326.061 6.18633C325.031 2.97858 320.481 2.97858 319.451 6.18633C318.421 9.39407 313.871 9.39407 312.841 6.18633C311.811 2.97858 307.261 2.97858 306.231 6.18633C305.201 9.39407 300.651 9.39407 299.621 6.18633C298.591 2.97858 294.041 2.97858 293.011 6.18633C291.981 9.39407 287.431 9.39407 286.401 6.18633C285.371 2.97858 280.821 2.97858 279.791 6.18633" stroke="#060305" stroke-miterlimit="10" stroke-linecap="round" stroke-linejoin="round"/>
<path d="M392.87 341.101C391.84 344.309 387.29 344.309 386.26 341.101C385.23 337.893 380.68 337.893 379.65 341.101C378.62 344.309 374.07 344.309 373.04 341.101C372.01 337.893 367.46 337.893 366.43 341.101C365.4 344.309 360.85 344.309 359.82 341.101C358.79 337.893 354.24 337.893 353.21 341.101C352.18 344.309 347.63 344.309 346.6 341.101C345.57 337.893 341.02 337.893 339.99 341.101C338.96 344.309 334.41 344.309 333.38 341.101C332.35 337.893 327.8 337.893 326.77 341.101" stroke="#060305" stroke-miterlimit="10" stroke-linecap="round" stroke-linejoin="round"/>
<path d="M286.559 140.582H198.199V183.662H286.559V140.582Z" stroke="#000D1A" stroke-miterlimit="10" stroke-linecap="round" stroke-linejoin="round"/>
<path d="M382.488 176.307C377.588 177.996 372.648 179.844 367.748 181.533C352.458 167.503 330.698 160.838 310.038 162.836C298.608 163.945 287.178 165.045 275.748 166.154C275.508 167.513 276.298 168.862 277.478 169.572C278.658 170.281 280.068 170.501 281.428 170.691C279.018 170.961 276.598 171.22 274.188 171.49C273.538 172.719 274.088 174.138 275.208 174.968C276.328 175.797 277.758 176.057 279.138 176.287C288.448 177.856 297.748 179.425 307.058 180.993C298.678 183.382 289.948 185.8 281.568 188.188C281.598 189.587 282.138 190.877 283.438 191.366C284.738 191.856 286.188 191.806 287.588 191.746C294.758 191.446 301.918 191.146 309.088 190.857C305.608 191.816 301.948 192.695 298.468 193.665C297.158 195.293 296.298 196.672 294.988 198.301C295.298 198.931 295.848 199.351 296.538 199.471C297.228 199.59 297.938 199.471 298.628 199.301C299.798 199.011 300.918 198.571 301.978 198.002C305.478 198.191 308.978 198.002 312.478 198.191C317.218 198.441 321.968 198.691 326.718 198.521C332.538 206.975 338.268 214.93 344.088 223.384C348.878 230.349 358.068 233.447 366.478 232.567C374.888 231.698 382.708 226.362 386.578 218.847C389.968 212.272 390.348 204.467 389.058 197.172C387.738 189.857 385.318 183.142 382.488 176.307Z" fill="#C14F4F"/>
<path d="M367.648 181.293C371.688 182.333 375.398 184.601 378.168 187.709" stroke="#060305" stroke-miterlimit="10" stroke-linecap="round" stroke-linejoin="round"/>
<path d="M326.508 198.862C331.408 198.412 336.298 197.962 341.198 197.512" stroke="#060305" stroke-miterlimit="10" stroke-linecap="round" stroke-linejoin="round"/>
<path d="M305.729 191.757C308.739 191.357 311.749 190.967 314.759 190.567" stroke="#060305" stroke-miterlimit="10" stroke-linecap="round" stroke-linejoin="round"/>
<path d="M303.979 181.203C307.109 181.443 310.239 181.673 313.369 181.913" stroke="#060305" stroke-miterlimit="10" stroke-linecap="round" stroke-linejoin="round"/>
<path d="M280.669 171.061C280.379 171.011 280.089 170.951 279.799 170.901C291.189 171.031 302.569 171.161 313.959 171.301" stroke="#060305" stroke-miterlimit="10" stroke-linecap="round" stroke-linejoin="round"/>
</svg>
