<svg width="40" height="40" viewBox="0 0 40 40" fill="none" xmlns="http://www.w3.org/2000/svg">
<circle cx="20" cy="20" r="20" fill="#DFE1F4"/>
<path d="M11.666 26.3125V13.3333C11.666 12.875 11.8294 12.4825 12.156 12.1558C12.4827 11.8291 12.8749 11.6661 13.3327 11.6666H26.666C27.1243 11.6666 27.5168 11.83 27.8435 12.1566C28.1702 12.4833 28.3332 12.8755 28.3327 13.3333V23.3333C28.3327 23.7916 28.1693 24.1841 27.8427 24.5108C27.516 24.8375 27.1238 25.0005 26.666 25H14.9993L13.0827 26.9166C12.8188 27.1805 12.5166 27.2397 12.176 27.0941C11.8355 26.9486 11.6655 26.688 11.666 26.3125ZM13.3327 24.3125L14.3119 23.3333H26.666V13.3333H13.3327V24.3125Z" fill="black"/>
</svg>
