<svg width="54" height="54" viewBox="0 0 54 54" fill="none" xmlns="http://www.w3.org/2000/svg">
<rect width="54" height="54" rx="10" fill="#DFE1F4"/>
<path d="M44 30.6834C44 31.5334 42.3 32.1001 40.3167 32.3834C39.0417 29.9751 36.4917 28.1334 33.5167 26.8584C33.8 26.4334 34.0833 26.1501 34.3667 25.7251H35.5C39.8917 25.5834 44 28.2751 44 30.6834ZM19.6333 25.5834H18.5C14.1083 25.5834 10 28.2751 10 30.6834C10 31.5334 11.7 32.1001 13.6833 32.3834C14.9583 29.9751 17.5083 28.1334 20.4833 26.8584L19.6333 25.5834ZM27 27.0001C30.1167 27.0001 32.6667 24.4501 32.6667 21.3334C32.6667 18.2167 30.1167 15.6667 27 15.6667C23.8833 15.6667 21.3333 18.2167 21.3333 21.3334C21.3333 24.4501 23.8833 27.0001 27 27.0001ZM27 28.4167C21.1917 28.4167 15.6667 32.1001 15.6667 35.5001C15.6667 38.3334 27 38.3334 27 38.3334C27 38.3334 38.3333 38.3334 38.3333 35.5001C38.3333 32.1001 32.8083 28.4167 27 28.4167ZM35.075 24.1667H35.5C37.9083 24.1667 39.75 22.3251 39.75 19.9167C39.75 17.5084 37.9083 15.6667 35.5 15.6667C34.7917 15.6667 34.225 15.8084 33.6583 16.0917C34.7917 17.5084 35.5 19.3501 35.5 21.3334C35.5 22.3251 35.3583 23.3167 35.075 24.1667ZM18.5 24.1667H18.925C18.6417 23.3167 18.5 22.3251 18.5 21.3334C18.5 19.3501 19.2083 17.5084 20.3417 16.0917C19.775 15.8084 19.2083 15.6667 18.5 15.6667C16.0917 15.6667 14.25 17.5084 14.25 19.9167C14.25 22.3251 16.0917 24.1667 18.5 24.1667Z" fill="black"/>
</svg>
