<svg width="37" height="43" viewBox="0 0 37 43" fill="none" xmlns="http://www.w3.org/2000/svg">
<path d="M9.55469 8.54376C9.92 6.24978 11.1884 4.10606 13.0252 2.64352C14.8619 1.191 17.2567 0.439689 19.6109 0.579933" stroke="#060305" stroke-width="0.8" stroke-miterlimit="10" stroke-linecap="round" stroke-linejoin="round"/>
<path d="M2.15625 15.2153C2.82599 15.576 3.49573 15.9366 4.16547 16.2872" stroke="#060305" stroke-width="0.8" stroke-miterlimit="10" stroke-linecap="round" stroke-linejoin="round"/>
<path d="M35.0245 17.7798C36.019 17.2689 36.5771 16.0468 36.3234 14.9749C36.0697 13.8931 34.8926 13.1818 33.7662 13.1518C34.5679 11.5891 34.1417 9.51546 32.8022 8.36346C31.4627 7.22148 29.3216 7.09125 27.8705 8.10301C26.6325 4.34649 22.8068 1.58169 18.8087 1.54162C14.8105 1.49153 10.8327 4.26635 9.50332 7.99282C8.48856 7.41181 7.07804 7.60214 6.26623 8.42356C5.44428 9.25501 5.21088 10.8277 5.81974 11.8094C4.85572 11.8094 3.92214 12.4305 3.57713 13.3221C3.23211 14.2036 3.49594 15.5359 4.20627 16.177C1.73026 17.3491 0.329889 20.3643 1.05037 22.9788C1.77085 25.5934 4.53099 27.4967 7.26069 27.2663L29.7275 24.6618C31.2801 24.7619 32.9544 23.3094 33.1472 21.7767C34.0909 21.917 35.0955 21.4362 35.5522 20.6147C36.019 19.7933 35.8972 18.6914 35.2782 17.9802C35.2072 17.9802 35.1057 17.7898 35.0245 17.7798Z" fill="#060305"/>
<path d="M25.5772 37.8446C28.0938 37.0032 30.2451 35.1299 31.3917 32.7658C32.5486 30.4017 32.9646 27.4165 31.96 24.9823C30.9554 22.5581 29.829 20.2441 28.8244 17.8099C25.0292 15.3155 19.8133 15.4157 15.8253 17.5995C15.9471 18.1905 15.7746 18.8216 15.3788 19.2824C14.9831 19.7332 14.4453 19.9736 13.8364 19.9436C14.4757 21.5263 13.6537 23.4897 12.1519 24.3212C11.746 23.7602 11.2082 23.2092 10.7921 22.6483C8.87422 22.3277 6.8041 23.2092 5.72846 24.812C4.64267 26.4048 4.61223 28.6286 5.63713 30.2615C6.66204 31.8943 8.70171 32.846 10.6298 32.5955C10.6095 33.7175 10.6196 34.7693 10.5892 35.8913C10.5181 39.1669 13.8364 42.0119 17.1141 42.5027C20.4019 42.9936 24.1768 40.8198 25.5772 37.8446Z" fill="#C14F4F"/>
<path d="M18.0262 26.3447C18.497 26.3447 18.8786 25.9679 18.8786 25.5032C18.8786 25.0385 18.497 24.6617 18.0262 24.6617C17.5555 24.6617 17.1738 25.0385 17.1738 25.5032C17.1738 25.9679 17.5555 26.3447 18.0262 26.3447Z" fill="#060305"/>
<path d="M27.5965 25.413C28.0673 25.413 28.4489 25.0363 28.4489 24.5716C28.4489 24.1068 28.0673 23.7301 27.5965 23.7301C27.1258 23.7301 26.7441 24.1068 26.7441 24.5716C26.7441 25.0363 27.1258 25.413 27.5965 25.413Z" fill="#060305"/>
<path d="M10.3242 32.6354C10.791 32.5954 11.2476 32.5454 11.7144 32.5054" stroke="#060305" stroke-width="0.8" stroke-miterlimit="10" stroke-linecap="round" stroke-linejoin="round"/>
<path d="M7.69727 25.5333C8.70188 26.1343 9.70649 26.7353 10.7212 27.3464" stroke="#060305" stroke-width="0.8" stroke-miterlimit="10" stroke-linecap="round" stroke-linejoin="round"/>
<path d="M16.0684 20.214C16.2104 19.593 16.6671 19.062 17.2556 18.8116C17.8442 18.5612 18.5545 18.6112 19.1025 18.9318" stroke="#060305" stroke-width="0.8" stroke-miterlimit="10" stroke-linecap="round" stroke-linejoin="round"/>
<path d="M26.0547 18.6914C26.5722 18.1504 27.4145 17.9401 28.1349 18.1805" stroke="#060305" stroke-width="0.8" stroke-miterlimit="10" stroke-linecap="round" stroke-linejoin="round"/>
<path d="M21.8934 25.383C21.8934 23.2693 20.1582 21.5563 18.017 21.5563C15.8759 21.5563 14.1406 23.2693 14.1406 25.383C14.1406 27.4966 15.8759 29.2096 18.017 29.2096C20.1582 29.2096 21.8934 27.4966 21.8934 25.383Z" stroke="#060305" stroke-width="0.8" stroke-miterlimit="10" stroke-linecap="round" stroke-linejoin="round"/>
<path d="M32.9129 24.1308C32.9129 22.0172 31.1777 20.3042 29.0365 20.3042C26.8954 20.3042 25.1602 22.0172 25.1602 24.1308C25.1602 26.2445 26.8954 27.9575 29.0365 27.9575C31.1878 27.9575 32.9129 26.2445 32.9129 24.1308Z" stroke="#060305" stroke-width="0.8" stroke-miterlimit="10" stroke-linecap="round" stroke-linejoin="round"/>
<path d="M21.7715 23.6099C22.6442 22.8186 24.075 22.6883 25.0796 23.3094" stroke="#060305" stroke-width="0.8" stroke-miterlimit="10" stroke-linecap="round" stroke-linejoin="round"/>
<path d="M23.416 24.4514C23.8321 25.5032 24.2583 26.545 24.6743 27.5968C24.2989 27.6569 23.9437 27.7371 23.5581 27.7972" stroke="#060305" stroke-width="0.8" stroke-miterlimit="10" stroke-linecap="round" stroke-linejoin="round"/>
<path d="M20.4727 29.5302C21.0409 29.5902 21.6092 29.6602 22.1774 29.7202" stroke="#060305" stroke-width="0.8" stroke-miterlimit="10" stroke-linecap="round" stroke-linejoin="round"/>
<path d="M17.7539 37.4039C20.3821 38.616 23.5177 38.7462 26.2373 37.7345" stroke="#060305" stroke-width="0.8" stroke-miterlimit="10" stroke-linecap="round" stroke-linejoin="round"/>
</svg>
