<svg width="40" height="40" viewBox="0 0 40 40" fill="none" xmlns="http://www.w3.org/2000/svg">
<circle cx="20" cy="20" r="20" fill="#DFE1F4"/>
<path d="M28.5785 15C28.2992 15.0001 28.0237 15.0653 27.774 15.1904C27.5243 15.3156 27.3072 15.4972 27.1399 15.7209C26.9727 15.9446 26.8599 16.2043 26.8105 16.4792C26.7611 16.7541 26.7765 17.0368 26.8554 17.3047L24.0675 20.0922C23.6999 19.9697 23.3024 19.9697 22.9347 20.0922L20.8679 18.0254C20.9359 17.76 20.9424 17.4826 20.8867 17.2143C20.8311 16.9461 20.7148 16.6941 20.5469 16.4777C20.3789 16.2612 20.1637 16.0861 19.9176 15.9656C19.6716 15.8451 19.4013 15.7824 19.1273 15.7824C18.8533 15.7824 18.583 15.8451 18.337 15.9656C18.0909 16.0861 17.8757 16.2612 17.7078 16.4777C17.5398 16.6941 17.4235 16.9461 17.3679 17.2143C17.3122 17.4826 17.3187 17.76 17.3867 18.0254L13.93 21.4797C13.5463 21.3661 13.1356 21.3836 12.7629 21.5295C12.3902 21.6754 12.0768 21.9414 11.8722 22.2854C11.6676 22.6293 11.5834 23.0317 11.633 23.4288C11.6826 23.8259 11.8632 24.1952 12.1461 24.4782C12.4291 24.7613 12.7983 24.942 13.1954 24.9917C13.5926 25.0414 13.9949 24.9574 14.339 24.7529C14.683 24.5484 14.949 24.235 15.0951 23.8624C15.2411 23.4898 15.2588 23.0791 15.1453 22.6953L18.5582 19.2828C18.9258 19.4054 19.3233 19.4054 19.691 19.2828L21.7582 21.35C21.6902 21.6154 21.6837 21.8928 21.7394 22.1611C21.795 22.4293 21.9113 22.6813 22.0792 22.8977C22.2472 23.1141 22.4624 23.2893 22.7085 23.4098C22.9545 23.5303 23.2248 23.593 23.4988 23.593C23.7728 23.593 24.0431 23.5303 24.2891 23.4098C24.5352 23.2893 24.7504 23.1141 24.9184 22.8977C25.0863 22.6813 25.2026 22.4293 25.2582 22.1611C25.3139 21.8928 25.3074 21.6154 25.2394 21.35L28.0707 18.5203C28.3178 18.5932 28.5778 18.6121 28.8329 18.5757C29.088 18.5393 29.3323 18.4485 29.5493 18.3094C29.7662 18.1702 29.9506 17.986 30.0901 17.7693C30.2296 17.5526 30.3208 17.3085 30.3576 17.0534C30.3944 16.7984 30.3759 16.5384 30.3033 16.2911C30.2308 16.0438 30.1059 15.815 29.9372 15.6202C29.7684 15.4255 29.5598 15.2693 29.3253 15.1623C29.0909 15.0552 28.8362 14.9999 28.5785 15Z" fill="#011528"/>
</svg>
