<svg width="40" height="40" viewBox="0 0 40 40" fill="none" xmlns="http://www.w3.org/2000/svg">
<circle cx="20" cy="20" r="20" fill="#DFE1F4"/>
<path d="M20 14.5024C19.672 14.5024 19.3473 14.567 19.0442 14.6926C18.7412 14.8181 18.4659 15.002 18.234 15.2339C18.0021 15.4659 17.8181 15.7412 17.6926 16.0442C17.5671 16.3472 17.5025 16.672 17.5025 16.9999C17.5025 17.3279 17.5671 17.6527 17.6926 17.9557C17.8181 18.2587 18.0021 18.534 18.234 18.7659C18.4659 18.9979 18.7412 19.1818 19.0442 19.3073C19.3473 19.4328 19.672 19.4974 20 19.4974C20.6624 19.4974 21.2976 19.2343 21.766 18.7659C22.2344 18.2976 22.4975 17.6623 22.4975 16.9999C22.4975 16.3376 22.2344 15.7023 21.766 15.2339C21.2976 14.7656 20.6624 14.5024 20 14.5024ZM25.625 15.7499C25.1277 15.7499 24.6508 15.9475 24.2992 16.2991C23.9475 16.6507 23.75 17.1277 23.75 17.6249C23.75 18.1222 23.9475 18.5991 24.2992 18.9508C24.6508 19.3024 25.1277 19.4999 25.625 19.4999C26.1223 19.4999 26.5992 19.3024 26.9508 18.9508C27.3025 18.5991 27.5 18.1222 27.5 17.6249C27.5 17.1277 27.3025 16.6507 26.9508 16.2991C26.5992 15.9475 26.1223 15.7499 25.625 15.7499ZM14.375 15.7499C13.8777 15.7499 13.4008 15.9475 13.0492 16.2991C12.6975 16.6507 12.5 17.1277 12.5 17.6249C12.5 18.1222 12.6975 18.5991 13.0492 18.9508C13.4008 19.3024 13.8777 19.4999 14.375 19.4999C14.8723 19.4999 15.3492 19.3024 15.7008 18.9508C16.0525 18.5991 16.25 18.1222 16.25 17.6249C16.25 17.1277 16.0525 16.6507 15.7008 16.2991C15.3492 15.9475 14.8723 15.7499 14.375 15.7499ZM16.25 21.9912C16.2523 21.6612 16.385 21.3455 16.6192 21.113C16.8534 20.8804 17.17 20.7499 17.5 20.7499H22.5C22.8315 20.7499 23.1495 20.8816 23.3839 21.1161C23.6183 21.3505 23.75 21.6684 23.75 21.9999V25.7499C23.7499 26.1433 23.6883 26.5343 23.5675 26.9087C23.2907 27.7571 22.7206 28.479 21.9594 28.9448C21.1982 29.4106 20.2959 29.5899 19.4145 29.4503C18.5331 29.3107 17.7304 28.8615 17.1504 28.1833C16.5704 27.5051 16.2511 26.6423 16.25 25.7499V21.9912ZM15 21.9999C15 21.5437 15.1213 21.1174 15.335 20.7499H12.5C12.1685 20.7499 11.8505 20.8816 11.6161 21.1161C11.3817 21.3505 11.25 21.6684 11.25 21.9999V25.1249C11.2498 25.6366 11.3753 26.1404 11.6153 26.5922C11.8554 27.0441 12.2027 27.43 12.6268 27.7162C13.0509 28.0025 13.5388 28.1802 14.0476 28.2338C14.5564 28.2874 15.0706 28.2152 15.545 28.0237C15.1852 27.3194 14.9984 26.5395 15 25.7487V21.9999ZM25 21.9999V25.7499C25 26.5687 24.8038 27.3412 24.455 28.0237C24.9294 28.2152 25.4436 28.2874 25.9524 28.2338C26.4612 28.1802 26.9491 28.0025 27.3732 27.7162C27.7973 27.43 28.1446 27.0441 28.3847 26.5922C28.6247 26.1404 28.7502 25.6366 28.75 25.1249V21.9999C28.75 21.6684 28.6183 21.3505 28.3839 21.1161C28.1495 20.8816 27.8315 20.7499 27.5 20.7499H24.665C24.8775 21.1174 25 21.5437 25 21.9999Z" fill="#011528"/>
</svg>
