<svg width="40" height="40" viewBox="0 0 40 40" fill="none" xmlns="http://www.w3.org/2000/svg">
<circle cx="20" cy="20" r="20" fill="#DFE1F4"/>
<path d="M13.375 27.5C13.125 27.5 12.9167 27.4167 12.75 27.25C12.5833 27.0833 12.5 26.875 12.5 26.625V23.25C12.5 23.0556 12.5625 22.8853 12.6875 22.7392C12.8125 22.5931 12.9722 22.4994 13.1667 22.4583L16.0417 21.875C16.2361 21.8472 16.4342 21.8647 16.6358 21.9275C16.8375 21.9903 17.0006 22.0839 17.125 22.2083L19.0833 24.1667C20.1389 23.5278 21.1042 22.7708 21.9792 21.8958C22.8542 21.0208 23.5833 20.0833 24.1667 19.0833L22.1667 17.0417C22.0417 16.9167 21.9617 16.7742 21.9267 16.6142C21.8917 16.4542 21.8883 16.2772 21.9167 16.0833L22.4583 13.1667C22.4861 12.9722 22.5764 12.8125 22.7292 12.6875C22.8819 12.5625 23.0556 12.5 23.25 12.5H26.625C26.875 12.5 27.0833 12.5833 27.25 12.75C27.4167 12.9167 27.5 13.125 27.5 13.375C27.5 15.1667 27.1006 16.9133 26.3017 18.615C25.5028 20.3167 24.4472 21.8236 23.135 23.1358C21.8228 24.4481 20.3158 25.5036 18.6142 26.3025C16.9125 27.1014 15.1661 27.5006 13.375 27.5Z" fill="#011528"/>
</svg>
