<svg width="40" height="40" viewBox="0 0 40 40" fill="none" xmlns="http://www.w3.org/2000/svg">
<circle cx="20" cy="20" r="20" fill="#DFE1F4"/>
<path d="M14.1667 28.3333C13.7083 28.3333 13.3158 28.17 12.9892 27.8433C12.6625 27.5166 12.4994 27.1244 12.5 26.6666V15C12.5 14.5416 12.6633 14.1491 12.99 13.8225C13.3167 13.4958 13.7089 13.3327 14.1667 13.3333H15V11.6666H16.6667V13.3333H23.3333V11.6666H25V13.3333H25.8333C26.2917 13.3333 26.6842 13.4966 27.0108 13.8233C27.3375 14.15 27.5006 14.5422 27.5 15V26.6666C27.5 27.125 27.3367 27.5175 27.01 27.8441C26.6833 28.1708 26.2911 28.3338 25.8333 28.3333H14.1667ZM14.1667 26.6666H25.8333V18.3333H14.1667V26.6666Z" fill="#011528"/>
</svg>
