<svg width="558" height="603" viewBox="0 0 558 603" fill="none" xmlns="http://www.w3.org/2000/svg">
<path d="M0 0H558V603H0V0Z" fill="#011528"/>
<path d="M288.05 272.276L278.1 266.625V277.928L288.05 272.276Z" fill="#814EFF"/>
<path d="M375.66 448.143L385.621 453.795V442.491L375.66 448.143Z" fill="#814EFF"/>
<path d="M483.196 185.946L477.455 195.735H488.947L483.196 185.946Z" fill="white"/>
<path d="M254.792 473.907L249.041 483.696H260.532L254.792 473.907Z" stroke="white" stroke-miterlimit="10" stroke-linecap="round" stroke-linejoin="round"/>
<path d="M93.8953 168.803L99.6461 159.014H88.1445L93.8953 168.803Z" fill="white"/>
<path d="M246.054 293.794C246.933 293.794 247.645 293.094 247.645 292.23C247.645 291.367 246.933 290.667 246.054 290.667C245.175 290.667 244.463 291.367 244.463 292.23C244.463 293.094 245.175 293.794 246.054 293.794Z" fill="#814EFF"/>
<path d="M435.411 257.241C435.411 256.37 434.696 255.677 433.82 255.677C432.934 255.677 432.229 256.38 432.229 257.241C432.229 258.112 432.944 258.805 433.82 258.805C434.696 258.815 435.411 258.112 435.411 257.241Z" fill="#814EFF"/>
<path d="M274.856 387.261C274.856 386.39 274.141 385.697 273.265 385.697C272.379 385.697 271.674 386.4 271.674 387.261C271.674 388.132 272.389 388.825 273.265 388.825C274.141 388.825 274.856 388.122 274.856 387.261Z" fill="#814EFF"/>
<path d="M305.595 351.529C306.474 351.529 307.186 350.829 307.186 349.965C307.186 349.101 306.474 348.401 305.595 348.401C304.716 348.401 304.004 349.101 304.004 349.965C304.004 350.829 304.716 351.529 305.595 351.529Z" stroke="#060305" stroke-miterlimit="10" stroke-linecap="round" stroke-linejoin="round"/>
<path d="M435.411 196.943C435.411 196.072 434.696 195.379 433.82 195.379C432.934 195.379 432.229 196.082 432.229 196.943C432.229 197.804 432.944 198.507 433.82 198.507C434.696 198.507 435.411 197.804 435.411 196.943Z" stroke="white" stroke-miterlimit="10" stroke-linecap="round" stroke-linejoin="round"/>
<path d="M426.181 108.564C426.181 107.693 425.466 107 424.589 107C423.703 107 422.998 107.703 422.998 108.564C422.998 109.435 423.713 110.128 424.589 110.128C425.466 110.128 426.181 109.425 426.181 108.564Z" fill="#814EFF"/>
<path d="M120.581 217.461C120.581 216.59 119.866 215.897 118.99 215.897C118.114 215.897 117.398 216.6 117.398 217.461C117.398 218.322 118.114 219.025 118.99 219.025C119.866 219.025 120.581 218.332 120.581 217.461Z" fill="#814EFF"/>
<path d="M490.474 162.28C490.474 161.409 489.758 160.716 488.882 160.716C487.996 160.716 487.291 161.419 487.291 162.28C487.291 163.151 488.006 163.844 488.882 163.844C489.758 163.844 490.474 163.141 490.474 162.28Z" stroke="white" stroke-miterlimit="10" stroke-linecap="round" stroke-linejoin="round"/>
<path d="M479.044 265.951C479.044 265.08 478.329 264.387 477.453 264.387C476.566 264.387 475.861 265.09 475.861 265.951C475.861 266.822 476.576 267.515 477.453 267.515C478.329 267.515 479.044 266.812 479.044 265.951Z" stroke="white" stroke-miterlimit="10" stroke-linecap="round" stroke-linejoin="round"/>
<path d="M504.001 207.474C504.001 206.603 503.286 205.91 502.41 205.91C501.523 205.91 500.818 206.613 500.818 207.474C500.818 208.345 501.533 209.038 502.41 209.038C503.286 209.038 504.001 208.335 504.001 207.474Z" fill="#814EFF"/>
<path d="M425.661 159.351C425.661 158.479 424.946 157.787 424.07 157.787C423.184 157.787 422.479 158.489 422.479 159.351C422.479 160.222 423.194 160.914 424.07 160.914C424.946 160.914 425.661 160.222 425.661 159.351Z" fill="#814EFF"/>
<path d="M141.561 199.506C141.561 198.635 140.846 197.943 139.97 197.943C139.084 197.943 138.379 198.645 138.379 199.506C138.379 200.368 139.094 201.07 139.97 201.07C140.846 201.07 141.561 200.368 141.561 199.506Z" stroke="white" stroke-miterlimit="10" stroke-linecap="round" stroke-linejoin="round"/>
<path d="M190.899 273.009C190.899 272.138 190.184 271.445 189.308 271.445C188.422 271.445 187.717 272.147 187.717 273.009C187.717 273.87 188.432 274.572 189.308 274.572C190.184 274.572 190.899 273.88 190.899 273.009Z" fill="#060305"/>
<path d="M57.1826 269.455C57.1826 268.584 56.4675 267.891 55.5913 267.891C54.705 267.891 54 268.594 54 269.455C54 270.316 54.7151 271.019 55.5913 271.019C56.4675 271.019 57.1826 270.316 57.1826 269.455Z" fill="#814EFF"/>
<path d="M130.06 154.55C130.06 153.679 129.344 152.986 128.468 152.986C127.582 152.986 126.877 153.689 126.877 154.55C126.877 155.421 127.592 156.114 128.468 156.114C129.344 156.114 130.06 155.411 130.06 154.55Z" fill="#814EFF"/>
<path d="M211.601 435.721C211.601 434.85 210.885 434.157 210.009 434.157C209.133 434.157 208.418 434.86 208.418 435.721C208.418 436.592 209.133 437.285 210.009 437.285C210.885 437.285 211.601 436.592 211.601 435.721Z" fill="white"/>
<path d="M288.032 402.969C288.032 402.098 287.317 401.405 286.441 401.405C285.555 401.405 284.85 402.108 284.85 402.969C284.85 403.84 285.565 404.533 286.441 404.533C287.317 404.542 288.032 403.84 288.032 402.969Z" fill="#814EFF"/>
<path d="M413.292 453.795C413.292 452.924 412.577 452.231 411.701 452.231C410.814 452.231 410.109 452.934 410.109 453.795C410.109 454.666 410.824 455.359 411.701 455.359C412.577 455.359 413.292 454.656 413.292 453.795Z" fill="#060305"/>
<path d="M224.218 493.436C224.218 492.565 223.503 491.872 222.626 491.872C221.75 491.872 221.035 492.575 221.035 493.436C221.035 494.307 221.75 495 222.626 495C223.503 495 224.218 494.297 224.218 493.436Z" fill="#814EFF"/>
<path d="M484.048 236.693C483.061 239.722 478.7 239.722 477.713 236.693C476.726 233.664 472.366 233.664 471.379 236.693C470.392 239.722 466.031 239.722 465.044 236.693C464.057 233.664 459.696 233.664 458.709 236.693C457.722 239.722 453.361 239.722 452.374 236.693C451.387 233.664 447.026 233.664 446.039 236.693C445.052 239.722 440.691 239.722 439.704 236.693C438.717 233.664 434.356 233.664 433.369 236.693C432.382 239.722 428.021 239.722 427.034 236.693C426.047 233.664 421.686 233.664 420.699 236.693" stroke="white" stroke-miterlimit="10" stroke-linecap="round" stroke-linejoin="round"/>
<path d="M179.892 429.693C178.905 432.722 174.544 432.722 173.557 429.693C172.57 426.665 168.209 426.665 167.222 429.693C166.235 432.722 161.874 432.722 160.887 429.693C159.9 426.665 155.539 426.665 154.552 429.693C153.565 432.722 149.205 432.722 148.218 429.693C147.231 426.665 142.87 426.665 141.883 429.693C140.896 432.722 136.535 432.722 135.548 429.693C134.561 426.665 130.2 426.665 129.213 429.693C128.226 432.722 123.865 432.722 122.878 429.693C121.891 426.665 117.53 426.665 116.543 429.693" stroke="white" stroke-miterlimit="10" stroke-linecap="round" stroke-linejoin="round"/>
<path d="M446.05 466.167C445.063 469.196 440.702 469.196 439.715 466.167C438.728 463.139 434.368 463.139 433.381 466.167C432.394 469.196 428.033 469.196 427.046 466.167C426.059 463.139 421.698 463.139 420.711 466.167C419.724 469.196 415.363 469.196 414.376 466.167C413.389 463.139 409.028 463.139 408.041 466.167C407.054 469.196 402.693 469.196 401.706 466.167C400.719 463.139 396.358 463.139 395.371 466.167C394.384 469.196 390.023 469.196 389.036 466.167C388.049 463.139 383.688 463.139 382.701 466.167" stroke="white" stroke-miterlimit="10" stroke-linecap="round" stroke-linejoin="round"/>
<path d="M375.703 311.124C387.85 307.741 403.426 311.047 412.576 319.601C421.725 328.156 425.181 342.512 419.762 353.717C416.764 359.93 411.411 364.844 405.337 368.253C399.264 371.662 392.47 373.656 385.624 375.097L290.687 389.376C288.92 371.444 287.166 353.498 285.398 335.566C315.203 327.281 345.898 319.409 375.703 311.124Z" fill="#000D1A"/>
<path d="M404.367 364.291C410.035 361.448 414.237 355.955 415.454 349.819" stroke="#060305" stroke-miterlimit="10" stroke-linecap="round" stroke-linejoin="round"/>
<path d="M325.04 237.606C318.639 226.775 308.874 217.062 297.133 212.2C287.761 208.328 278.69 204.7 269.318 200.828C267.721 203.349 264.423 204.7 261.478 204.044C258.532 203.388 255.705 200.764 255.365 197.818C244.33 198.564 233.374 200.378 222.707 203.221C200.206 209.215 183.163 228.254 174.105 249.377C179.695 250.972 184.917 252.49 190.507 254.085C192.915 274.166 195.441 293.668 197.863 313.749C224.906 317.595 252.59 321.107 277.159 332.864L307.88 333.135C313.024 312.372 318.364 291.841 323.495 271.079C329.53 267.914 336.205 264.839 342.239 261.675C336.532 253.596 330.053 246.097 325.04 237.606Z" fill="white"/>
<path d="M242.693 199.773C244.788 205.086 247.104 210.579 251.45 214.361C255.914 218.233 262.328 219.828 268.126 218.503C273.925 217.178 278.964 212.958 281.229 207.543" stroke="black" stroke-miterlimit="10" stroke-linecap="round" stroke-linejoin="round"/>
<path d="M308.376 218.889C307.106 237.876 307.97 256.992 310.954 275.787" stroke="black" stroke-miterlimit="10" stroke-linecap="round" stroke-linejoin="round"/>
<path d="M221.199 255.989C222.377 246.495 223.568 237.002 224.746 227.508C225.126 224.485 225.506 221.423 225.178 218.387C224.864 215.351 223.791 212.303 221.618 210.129C219.445 207.955 216.068 206.81 213.123 207.775" stroke="black" stroke-miterlimit="10" stroke-linecap="round" stroke-linejoin="round"/>
<path d="M177.625 243.626C192.259 245.775 206.893 247.923 221.514 250.071" stroke="black" stroke-miterlimit="10" stroke-linecap="round" stroke-linejoin="round"/>
<path d="M312.769 260.864L289.391 329.532H244.167C241.876 329.532 240.41 332.079 241.719 333.945C243.185 336.042 245.594 337.302 248.159 337.302H394.525C397.771 337.302 400.651 335.257 401.685 332.221L425.979 260.877C426.83 258.381 424.945 255.796 422.275 255.796H319.929C316.682 255.783 313.803 257.828 312.769 260.864Z" fill="#9E97FF"/>
<path d="M369.354 297.733C369.354 295.005 367.116 292.793 364.354 292.793C361.592 292.793 359.354 295.005 359.354 297.733C359.354 300.46 361.592 302.672 364.354 302.672C367.116 302.672 369.354 300.46 369.354 297.733Z" fill="#000D1A"/>
<path d="M318.527 255.912L292.715 336.518" stroke="#060305" stroke-miterlimit="10" stroke-linecap="round" stroke-linejoin="round"/>
<path d="M422.34 257.726H359.354" stroke="white" stroke-miterlimit="10" stroke-linecap="round" stroke-linejoin="round"/>
<path d="M265.693 298.234C248.925 289.95 231.281 282.604 213.741 276.057C215.691 269.342 217.641 262.627 219.592 255.912L178.648 249.84C174.865 257.095 171.069 264.402 168.805 272.249C166.54 280.083 165.899 288.586 168.464 296.343C172.286 307.895 183.255 315.974 195.481 317.788C221.333 321.621 247.066 327.024 272.303 333.739C273.52 334.061 274.777 334.382 276.02 334.189C277.264 333.996 278.494 333.134 278.677 331.912C277.277 330.51 275.863 329.108 274.463 327.706C273.821 327.063 273.141 326.394 272.277 326.085C274.201 326.741 276.387 327.667 278.311 328.323C280.026 330.639 282.028 332.748 284.188 334.678C285.117 335.501 287.028 335.694 288.023 334.935C286.636 331.192 285.379 327.667 283.992 323.924C287.015 325.802 290.183 328.233 293.455 329.635C294.712 330.176 296.427 329.79 297.238 328.696C288.547 317.08 278.808 304.718 265.693 298.234Z" fill="#C14F4F"/>
<path d="M214.065 275.748C211.63 275.735 209.183 275.722 206.748 275.696" stroke="#060305" stroke-miterlimit="10" stroke-linecap="round" stroke-linejoin="round"/>
<path d="M274.791 315.716C278.207 318.958 281.637 322.213 285.053 325.455" stroke="#060305" stroke-miterlimit="10" stroke-linecap="round" stroke-linejoin="round"/>
<path d="M268.393 323.448C270.644 325.004 272.895 326.574 275.147 328.13" stroke="#060305" stroke-miterlimit="10" stroke-linecap="round" stroke-linejoin="round"/>
<path d="M263.883 329.121C266.972 330.883 270.061 332.646 273.15 334.395" stroke="#060305" stroke-miterlimit="10" stroke-linecap="round" stroke-linejoin="round"/>
<path d="M327.067 352.135C318.088 349.883 309.449 347.452 300.823 344.12C295.286 358.682 293.676 374.518 295.207 389.993C310.823 391.473 328.913 391.241 340.562 401.558C342.997 403.707 345.746 405.752 348.953 405.096L327.067 352.135Z" fill="#060305"/>
<path d="M309.723 382.275C309.723 385.259 309.723 388.244 309.723 391.228" stroke="white" stroke-miterlimit="10" stroke-linecap="round" stroke-linejoin="round"/>
<path d="M314.303 382.429C314.432 385.633 314.575 388.823 314.705 392.026" stroke="white" stroke-miterlimit="10" stroke-linecap="round" stroke-linejoin="round"/>
<path d="M319.807 382.275C319.755 385.414 319.703 388.565 319.639 391.704" stroke="white" stroke-miterlimit="10" stroke-linecap="round" stroke-linejoin="round"/>
<path d="M284.625 173.029C285.829 172.36 286.589 171.009 286.536 169.658C286.471 168.308 285.594 167.021 284.337 166.468C283.29 166.005 282.086 166.031 280.934 166.069C276.785 166.224 272.321 166.764 268.198 166.301C262.923 165.722 257.425 167.857 253.983 171.832C250.54 175.807 249.271 181.48 250.697 186.51L276.562 192.093C276.902 187.809 278.172 183.307 279.795 179.319C281.078 179.268 282.4 179.165 283.578 178.663C284.756 178.161 285.803 177.197 286.091 175.962C286.366 174.727 285.856 173.376 284.625 173.029Z" fill="#000D1A"/>
<path d="M276.516 206.076C274.762 205.369 273.152 204.803 271.398 204.095C271.647 203.182 272.105 202.037 272.353 201.124C275.128 201.008 277.838 199.824 279.801 197.882C281.765 195.939 282.903 193.38 282.93 190.652C282.982 187.05 282.89 183.204 281.045 180.078C279.775 177.943 277.498 176.541 275.089 175.807C274.487 176.926 273.361 177.763 272.105 178.02C270.848 178.277 269.578 177.878 268.571 177.094C268.06 178.341 266.843 179.293 265.495 179.486C264.133 179.679 262.824 178.869 261.973 177.814C262.157 180.027 261.175 182.278 259.421 183.68C258.897 182.998 258.426 182.252 257.89 181.57C255.651 180.747 252.942 181.352 251.279 183.037C249.617 184.722 249.107 187.411 250.01 189.585C250.926 191.759 253.217 193.289 255.612 193.328C254.892 195.528 253.989 197.547 253.269 199.747C251.554 199.979 249.748 200.069 248.033 200.3C249.054 204.468 250.808 208.302 254.251 210.939C257.693 213.576 262.248 214.862 266.542 214.155C270.874 213.46 274.723 209.987 276.516 206.076Z" fill="#C14F4F"/>
<path d="M267.145 189.739C267.868 189.739 268.454 189.163 268.454 188.452C268.454 187.742 267.868 187.166 267.145 187.166C266.422 187.166 265.836 187.742 265.836 188.452C265.836 189.163 266.422 189.739 267.145 189.739Z" fill="#060305"/>
<path d="M279.307 189.327C280.03 189.327 280.616 188.752 280.616 188.041C280.616 187.331 280.03 186.755 279.307 186.755C278.584 186.755 277.998 187.331 277.998 188.041C277.998 188.752 278.584 189.327 279.307 189.327Z" fill="#060305"/>
<path d="M274.081 187.192C274.343 188.671 274.604 190.138 274.866 191.617C274.264 191.45 273.439 191.527 272.824 191.36" stroke="#060305" stroke-miterlimit="10" stroke-linecap="round" stroke-linejoin="round"/>
<path d="M265.719 182.728C266.164 181.764 267.172 181.069 268.258 181.005C269.331 180.927 270.431 181.481 271.007 182.381" stroke="#060305" stroke-miterlimit="10" stroke-linecap="round" stroke-linejoin="round"/>
<path d="M278.693 181.431C279.505 181.379 280.316 181.34 281.128 181.288" stroke="#060305" stroke-miterlimit="10" stroke-linecap="round" stroke-linejoin="round"/>
<path d="M268.167 191.489C268.141 192.119 268.521 192.749 269.097 193.032C269.673 193.315 270.406 193.238 270.903 192.839" stroke="#060305" stroke-miterlimit="10" stroke-linecap="round" stroke-linejoin="round"/>
<path d="M253.65 184.709C254.671 185.25 255.705 185.79 256.726 186.33" stroke="#060305" stroke-miterlimit="10" stroke-linecap="round" stroke-linejoin="round"/>
<path d="M255.148 193.779C255.764 193.779 256.366 193.779 256.981 193.779" stroke="#060305" stroke-miterlimit="10" stroke-linecap="round" stroke-linejoin="round"/>
<path d="M261.92 198.886C264.773 201.085 268.491 202.153 272.104 201.819" stroke="#060305" stroke-miterlimit="10" stroke-linecap="round" stroke-linejoin="round"/>
<path d="M215.616 314.854C203.626 310.944 187.919 313.568 178.39 321.711C168.861 329.854 164.764 344.043 169.659 355.479C172.369 361.821 177.5 366.967 183.416 370.633C189.333 374.299 196.021 376.589 202.802 378.326L297.006 396.747C299.585 378.904 302.151 361.062 304.729 343.22C275.33 333.636 245.015 324.438 215.616 314.854Z" fill="#000D1A"/>
<path d="M305.63 343.271L287.357 337.302" stroke="#060305" stroke-miterlimit="10" stroke-linecap="round" stroke-linejoin="round"/>
<path d="M298.053 340.711C294.152 358.85 290.239 377.001 286.338 395.139" stroke="#060305" stroke-miterlimit="10" stroke-linecap="round" stroke-linejoin="round"/>
<path d="M174.17 338.615C175.073 334.074 177.547 329.854 181.107 326.831" stroke="#060305" stroke-miterlimit="10" stroke-linecap="round" stroke-linejoin="round"/>
</svg>
